<svg viewBox="0 0 1024 1024" xmlns="http://www.w3.org/2000/svg" id="fa109a93-d3ba-4f6e-ba54-13ad509d45e4"><defs><style>.ac73c38b-44b0-48b6-b28a-b4c436926510{fill:#e61f19;opacity:0.2;}.ba025f83-a1bc-45fa-b743-2b0877bde2d7{fill:#fff;}.ea64e9ba-a57d-484a-9f2d-981c8273b016{fill:#231815;}.e190106d-7c66-48fe-99bd-e94951444f2d{fill:#040000;}.b50aef11-f8a3-461a-becf-6e515c466a98{fill:none;}</style></defs><title>Try my best！</title><path d="M821.37,242.14,773.8,284.31a6.4,6.4,0,1,1-8.49-9.58L813.49,232c-3.4-4.18-7-8.4-10.83-12.7C643.42,42.54,466.87,112.08,341.37,203.69,215.68,295.45,283.71,462.1,283.71,462.1s42.54,55-117.89,136C98.14,632.19,76.13,698.35,85.17,744.51a116.57,116.57,0,0,0,6.25,20.92L130,749.79a6.4,6.4,0,0,1,4.81,11.87L96.75,777.08c24.43,47.09,79.07,84.5,139.9,84.5l515-19S906,779.36,807.55,623.76C713.45,475,940.22,402.64,821.37,242.14Z" class="ac73c38b-44b0-48b6-b28a-b4c436926510"></path><path d="M880,848.79H659.29c-4.63,0-7.85-4.83-6.26-9.39L707.14,684a6.69,6.69,0,0,1,6.26-4.59H934.09c4.63,0,7.85,4.83,6.26,9.39L886.24,844.2A6.69,6.69,0,0,1,880,848.79Z" class="ba025f83-a1bc-45fa-b743-2b0877bde2d7"></path><path d="M880,850.92H659.29a8.62,8.62,0,0,1-7.08-3.71,9.39,9.39,0,0,1-1.19-8.52l54.11-155.38a8.84,8.84,0,0,1,8.27-6H934.09a8.62,8.62,0,0,1,7.08,3.71,9.36,9.36,0,0,1,1.19,8.52L888.25,844.9A8.84,8.84,0,0,1,880,850.92ZM713.4,681.55a4.57,4.57,0,0,0-4.24,3.17L655.05,840.1a5.1,5.1,0,0,0,.64,4.64,4.39,4.39,0,0,0,3.6,1.92H880a4.57,4.57,0,0,0,4.24-3.17l54.11-155.38a5.1,5.1,0,0,0-.64-4.64,4.38,4.38,0,0,0-3.6-1.92Z" class="ea64e9ba-a57d-484a-9f2d-981c8273b016"></path><path d="M829.15,900.56h-250c-5.24,0-8.89-5.47-7.09-10.64l61.3-176a7.57,7.57,0,0,1,7.09-5.21h250c5.24,0,8.89,5.47,7.09,10.64l-61.3,176A7.57,7.57,0,0,1,829.15,900.56Z" class="e190106d-7c66-48fe-99bd-e94951444f2d"></path><path d="M168.46,914.13s3.27-344.72,193-376.3c200.36-33.35,243.86,121.35,243.86,121.35L649,804.63l15.22,109.5" class="ba025f83-a1bc-45fa-b743-2b0877bde2d7"></path><path d="M662.06,914.42,646.83,804.93,603.27,659.79c-.44-1.56-45.39-152.51-241.47-119.86C176,570.86,170.63,910.72,170.59,914.15l-4.26,0c0-.87,1.1-87.49,25.42-176.85,32.34-118.79,90.9-188.47,169.35-201.54C418.7,526.13,500,526.8,560,584.46c35.93,34.51,47.26,73.75,47.38,74.14L651,804l15.3,109.81Z" class="e190106d-7c66-48fe-99bd-e94951444f2d"></path><ellipse transform="translate(-176.15 939.32) rotate(-83.5)" ry="68.16" rx="30.58" cy="568.34" cx="438.15" class="e190106d-7c66-48fe-99bd-e94951444f2d"></ellipse><path d="M424.23,514.09l-18.59,46.85s38.07,35.46,66.32,7.21l11.44-54.06Z" class="ba025f83-a1bc-45fa-b743-2b0877bde2d7"></path><path d="M446.71,581.15c-22.15,0-42.24-18.39-42.52-18.65l-1.07-1L422.78,512H486l-12.11,57.26-.45.45C465,578.13,455.69,581.15,446.71,581.15Zm-38.54-20.81c6.3,5.44,37.68,30.21,61.84,6.74l10.76-50.86h-55.1Z" class="e190106d-7c66-48fe-99bd-e94951444f2d"></path><path transform="translate(1091.69 844.09) rotate(180)" d="M543.45,397.19H573.1a0,0,0,0,1,0,0V446.9a0,0,0,0,1,0,0H543.45A24.86,24.86,0,0,1,518.59,422v0A24.86,24.86,0,0,1,543.45,397.19Z" class="ba025f83-a1bc-45fa-b743-2b0877bde2d7"></path><path d="M549.41,449H518.59a2.13,2.13,0,0,1-2.13-2.14V397.19a2.13,2.13,0,0,1,2.13-2.14h30.82a25.85,25.85,0,0,1,25.82,25.83v2.33A25.85,25.85,0,0,1,549.41,449Zm-28.69-4.27h28.69A21.59,21.59,0,0,0,571,423.21v-2.33a21.59,21.59,0,0,0-21.56-21.56H520.72Z" class="e190106d-7c66-48fe-99bd-e94951444f2d"></path><path d="M544.81,429.12s1-12.81,13.38-12.81" class="ba025f83-a1bc-45fa-b743-2b0877bde2d7"></path><path d="M544.81,431.25h-.17a2.14,2.14,0,0,1-2-2.3c.42-5.11,4.19-14.78,15.51-14.78a2.14,2.14,0,1,1,0,4.27c-10.26,0-11.22,10.41-11.25,10.85A2.14,2.14,0,0,1,544.81,431.25Z" class="e190106d-7c66-48fe-99bd-e94951444f2d"></path><path d="M441.09,323.19h38.67a66.08,66.08,0,0,1,66.08,66.08v63.14a85.42,85.42,0,0,1-85.42,85.42h0A85.42,85.42,0,0,1,375,452.41V389.27A66.08,66.08,0,0,1,441.09,323.19Z" class="ba025f83-a1bc-45fa-b743-2b0877bde2d7"></path><path d="M463.34,540h-5.83a84.72,84.72,0,0,1-84.63-84.63V323.19a2.13,2.13,0,0,1,2.13-2.13H545.84a2.13,2.13,0,0,1,2.14,2.13V455.33A84.73,84.73,0,0,1,463.34,540Zm-86.2-214.63v130a80.47,80.47,0,0,0,80.37,80.37h5.83a80.46,80.46,0,0,0,80.37-80.37v-130Z" class="e190106d-7c66-48fe-99bd-e94951444f2d"></path><path d="M345.36,412.49H375a0,0,0,0,1,0,0v49.72a0,0,0,0,1,0,0H345.36a24.86,24.86,0,0,1-24.86-24.86v0a24.86,24.86,0,0,1,24.86-24.86Z" class="ba025f83-a1bc-45fa-b743-2b0877bde2d7"></path><path d="M375,464.34H344.19a25.85,25.85,0,0,1-25.82-25.82v-2.34a25.85,25.85,0,0,1,25.82-25.82H375a2.13,2.13,0,0,1,2.13,2.13v49.72A2.13,2.13,0,0,1,375,464.34Zm-30.82-49.71a21.58,21.58,0,0,0-21.55,21.55v2.34a21.57,21.57,0,0,0,21.55,21.55h28.69V414.63Z" class="e190106d-7c66-48fe-99bd-e94951444f2d"></path><path d="M443.84,388.53c-7.09,0-15.6-1.37-21.12-6.89a2.13,2.13,0,0,1,3-3c9.07,9.07,29.52,4.48,29.72,4.43a2.13,2.13,0,1,1,1,4.15A60.59,60.59,0,0,1,443.84,388.53Z" class="e190106d-7c66-48fe-99bd-e94951444f2d"></path><path d="M375,444.74a2.13,2.13,0,0,1-1.56-.68C361.32,431,349.54,438.3,349,438.62a2.14,2.14,0,0,1-2.3-3.6c.14-.09,15.32-9.54,29.84,6.14a2.14,2.14,0,0,1-1.57,3.58Z" class="e190106d-7c66-48fe-99bd-e94951444f2d"></path><path d="M573,317.74a43.23,43.23,0,0,0-42.39-52c-.28,0-.56,0-.84,0-47.62-47.62-97.17-11.16-97.17-11.16-1-.07-2-.15-3-.15a41.53,41.53,0,0,0-31.19,14.09c-14.6.32-26.59,9.53-28.88,21.56-19.95,5.66-32.39,25.37-32.39,45.27a38.24,38.24,0,0,0,.62,6.54c-.2.1-.42.17-.62.27,0,0-11.57,11.85-11.57,29.46,0,17.22,5.21,45.45,5.21,45.45s42.09-14.29,42.09,25.51l21.17-4.53s-.35-22.17,4.75-42c1.62.15,3.27.22,4.94.22,25.5,0,47.8-10,49.65-32C462.2,375,475,378.8,491.14,378.8c15.38,0,29-10.65,37.87-20.52a29.92,29.92,0,1,0,44-40.54Z" class="e190106d-7c66-48fe-99bd-e94951444f2d"></path><path d="M475.4,333.88c-19.41,0-39.61-8.19-40.89-8.71a2.13,2.13,0,0,1,1.62-3.95c.46.19,45.47,18.42,63.42.47a2.13,2.13,0,0,1,3,3C495.67,331.6,485.65,333.88,475.4,333.88Z" class="ba025f83-a1bc-45fa-b743-2b0877bde2d7"></path><path d="M515,316.92a2.14,2.14,0,0,1-1.32-3.81c.07-.06,7.5-6,9.49-11.78a2.14,2.14,0,0,1,4,1.39c-2.4,7-10.54,13.47-10.89,13.74A2.1,2.1,0,0,1,515,316.92Z" class="ba025f83-a1bc-45fa-b743-2b0877bde2d7"></path><path d="M447.19,455.07a26.91,26.91,0,1,1,26.91-26.91A26.94,26.94,0,0,1,447.19,455.07Zm0-49.56a22.65,22.65,0,1,0,22.64,22.65A22.67,22.67,0,0,0,447.19,405.51Z" class="e190106d-7c66-48fe-99bd-e94951444f2d"></path><path d="M520,452.22a26.91,26.91,0,1,1,26.91-26.91A26.94,26.94,0,0,1,520,452.22Zm0-49.56a22.65,22.65,0,1,0,22.65,22.65A22.67,22.67,0,0,0,520,402.66Z" class="e190106d-7c66-48fe-99bd-e94951444f2d"></path><path d="M473.09,430l-2.25-3.62c.63-.39,15.55-9.47,26.71.2l-2.79,3.22C486,422.16,473.22,429.9,473.09,430Z" class="e190106d-7c66-48fe-99bd-e94951444f2d"></path><rect transform="translate(-146.87 609.95) rotate(-64.96)" height="37.02" width="4.27" y="401.82" x="403.51" class="e190106d-7c66-48fe-99bd-e94951444f2d"></rect><path d="M449.55,850.76a19,19,0,0,1-15.48-29.9L537.5,673.72a19,19,0,0,1,31,21.83L465.12,842.69a18.84,18.84,0,0,1-12.27,7.78A19.36,19.36,0,0,1,449.55,850.76ZM553.06,669.92a14.77,14.77,0,0,0-2.56.23,14.58,14.58,0,0,0-9.51,6L437.56,823.32a14.73,14.73,0,0,0,3.57,20.49h0a14.72,14.72,0,0,0,20.5-3.57L565.06,693.1a14.72,14.72,0,0,0-12-23.18Z" class="e190106d-7c66-48fe-99bd-e94951444f2d"></path><path d="M587,696.54a27.39,27.39,0,0,1-13.79-3.48c-13-7.45-18.53-25.9-15.52-51.93,2.93-25.41,13.62-55.26,30.1-84S624.55,504,645,488.56c20.92-15.77,39.62-20.36,52.64-12.9,26.72,15.29,20.31,75-14.58,136-16.48,28.79-36.8,53.12-57.23,68.52C611.44,691,598.11,696.54,587,696.54Zm96.8-220.12c-10.16,0-22.58,5.28-36.21,15.55-20,15.06-39.9,38.94-56.1,67.23s-26.7,57.57-29.57,82.42c-2.79,24.23,2,41.18,13.41,47.73s28.48,2.08,48-12.61c20-15.06,39.9-38.93,56.1-67.23h0c33.14-57.89,40.39-116.28,16.16-130.15A23.26,23.26,0,0,0,683.76,476.42Z" class="e190106d-7c66-48fe-99bd-e94951444f2d"></path><path d="M591.37,678.72a17.21,17.21,0,0,1-8.72-2.2c-19.35-11.07-11.33-60.23,18.25-111.91,13.93-24.33,30.48-45.26,46.59-58.95,16.66-14.15,31.1-18.93,40.67-13.46s12.75,20.35,9,41.89c-3.64,20.82-13.31,45.69-27.24,70C644.28,648.86,612.1,678.72,591.37,678.72Zm88-184.45c-7.66,0-17.86,5.06-29.15,14.64-15.75,13.38-32,33.91-45.64,57.82-27.45,47.95-36.54,96.53-19.84,106.09s54-22.88,81.43-70.83l1.85,1.06L666.2,602c13.69-23.91,23.18-48.29,26.74-68.64,3.38-19.35.87-33-6.9-37.44A13.11,13.11,0,0,0,679.4,494.27Z" class="e190106d-7c66-48fe-99bd-e94951444f2d"></path><path d="M602.75,565.67c22.65-39.55,51-67.81,70.84-72.7a72.34,72.34,0,0,0-1.71-16.58c-25.42,7.87-57.6,38.64-82.28,81.75s-34.92,86.44-28.83,112.35a72.67,72.67,0,0,0,15.16-6.92C570.13,644,580.11,605.22,602.75,565.67Z" class="ba025f83-a1bc-45fa-b743-2b0877bde2d7"></path><path d="M559.22,673.21l-.53-2.23c-6.39-27.19,5-71.9,29.06-113.9s56.82-74.47,83.5-82.73l2.19-.68.52,2.23A74.77,74.77,0,0,1,675.72,493v1.67l-1.62.4c-19.83,4.9-47.75,33.71-69.49,71.69h0c-21.74,38-32.45,76.65-26.64,96.23l.48,1.6-1.44.85a74.62,74.62,0,0,1-15.61,7.12Zm111.07-194c-25.3,9-56,40.1-78.84,80s-34.11,82.12-29.09,108.51a71.93,71.93,0,0,0,11.08-5.17c-5.11-21,5.76-60,27.46-97.93s49.8-67,70.54-73.26A71.91,71.91,0,0,0,670.29,479.17Z" class="e190106d-7c66-48fe-99bd-e94951444f2d"></path><path d="M696.56,477.51c-25.29-14.48-73.18,21.62-107,80.63s-40.66,118.59-15.37,133.07,73.18-21.63,107-80.64S721.85,492,696.56,477.51ZM668.05,603.05c-28.29,49.43-65.85,81.13-83.89,70.8s-9.71-58.76,18.58-108.19,65.85-81.12,83.89-70.8S696.34,553.62,668.05,603.05Z" class="ba025f83-a1bc-45fa-b743-2b0877bde2d7"></path><path d="M587,696.54a27.39,27.39,0,0,1-13.79-3.48c-13-7.45-18.53-25.9-15.52-51.93,2.93-25.41,13.62-55.26,30.1-84S624.55,504,645,488.56c20.92-15.77,39.62-20.36,52.64-12.9h0c26.72,15.29,20.31,75-14.58,136-16.48,28.79-36.8,53.12-57.23,68.52C611.44,691,598.11,696.54,587,696.54Zm96.8-220.12c-10.16,0-22.58,5.28-36.21,15.55-20,15.06-39.9,38.94-56.1,67.23s-26.7,57.57-29.57,82.42c-2.79,24.23,2,41.18,13.41,47.73s28.47,2.08,48-12.61c20-15.06,39.9-38.93,56.1-67.23,33.14-57.89,40.39-116.28,16.16-130.15h0A23.26,23.26,0,0,0,683.76,476.42ZM591.93,677.93a17.52,17.52,0,0,1-8.83-2.22c-19.35-11.08-11.53-59.88,17.79-111.11s67.45-82.66,86.8-71.59,11.53,59.88-17.79,111.1c-13.8,24.12-30.23,44.85-46.26,58.38C611.57,672.67,600.66,677.93,591.93,677.93ZM678.77,495c-18.6,0-50.23,29.86-74.18,71.7C577.4,614.23,568.53,662.45,585.22,672c7.77,4.46,20.77-.2,35.66-12.77C636.54,646,652.63,625.69,666.2,602c27.19-47.51,36.06-95.72,19.37-105.28A13.48,13.48,0,0,0,678.77,495Z" class="e190106d-7c66-48fe-99bd-e94951444f2d"></path><path d="M668.05,603.05c25.72-44.93,34.86-88.95,22.77-104.35l-32.5,120.07C661.64,613.76,664.91,608.53,668.05,603.05Z" class="b50aef11-f8a3-461a-becf-6e515c466a98"></path><path d="M687.1,494.05c-3.73-2.13-8.35-2.36-13.51-1.08-.05,25.83-10.56,60.87-30.54,95.77s-44.87,61.71-67.12,74.83c1.51,5.1,4,9,7.78,11.1,18,10.32,55.79-21.74,84.34-71.62S705.13,504.38,687.1,494.05Z" class="ba025f83-a1bc-45fa-b743-2b0877bde2d7"></path><path d="M591.4,678.73a17.32,17.32,0,0,1-8.75-2.21c-4.08-2.33-7-6.48-8.77-12.35l-.47-1.59,1.43-.85c23-13.56,47.18-40.55,66.35-74.05s30.21-68,30.26-94.72V491.3l1.62-.4c5.92-1.48,11-1,15.08,1.3,9.56,5.47,12.75,20.35,9,41.89-3.64,20.82-13.31,45.69-27.24,70s-30.47,45.27-46.59,58.95C611.15,673.39,600.17,678.73,591.4,678.73Zm-12.91-14.21c1.43,3.94,3.53,6.73,6.28,8.3,7.78,4.45,20.81-.3,35.78-13,15.75-13.37,32-33.91,45.65-57.82s23.18-48.29,26.74-68.64c3.38-19.35.87-33-6.9-37.44h0c-2.75-1.58-6.22-2-10.34-1.22-.5,27.15-11.67,61.69-30.8,95.11S601.65,650.33,578.49,664.52Z" class="e190106d-7c66-48fe-99bd-e94951444f2d"></path><path d="M655.72,454.52l-.92-.51,0,.1c-26-9.44-71.06,25.9-103.29,82.2-33.78,59-40.66,118.59-15.37,133.06l38.14,21.84c-25.29-14.48-18.41-74.06,15.37-133.07s81.67-95.11,107-80.63L660.5,457.22Z" class="ba025f83-a1bc-45fa-b743-2b0877bde2d7"></path><path d="M574.23,693.34a2.16,2.16,0,0,1-1.06-.28L535,671.22c-13-7.45-18.53-25.89-15.53-51.92,2.94-25.42,13.63-55.26,30.11-84,32.62-57,77.72-92.64,105.31-83.34a2,2,0,0,1,.93.24l41.45,23.33.32.18a2.13,2.13,0,0,1-2.11,3.71l-.28-.16c-11.44-6.33-28.36-1.8-47.68,12.76-20,15.06-39.9,38.94-56.1,67.23s-26.7,57.57-29.57,82.42c-2.79,24.21,2,41.15,13.38,47.72h0a2.14,2.14,0,0,1-1.06,4ZM645.5,454.7c-25.79,0-64.17,33.72-92.19,82.67-16.19,28.29-26.7,57.56-29.57,82.42-2.8,24.23,2,41.18,13.41,47.73l25.6,14.66c-5.31-9.61-7.12-23.63-5.1-41,2.93-25.41,13.62-55.26,30.1-84S624.55,504,645,488.56c13.92-10.49,26.85-16,37.77-16.37l-28.08-15.8h0l-.32-.17a2,2,0,0,1-.33-.09A24.78,24.78,0,0,0,645.5,454.7Z" class="e190106d-7c66-48fe-99bd-e94951444f2d"></path><path d="M696.56,477.51c-25.29-14.48-73.18,21.62-107,80.63s-40.66,118.59-15.37,133.07,73.18-21.63,107-80.64S721.85,492,696.56,477.51ZM668.05,603.05c-3.14,5.48-6.41,10.71-9.73,15.72l0,.11-.09.07c-22.72,34.18-48.88,56.64-66,56.82a15.56,15.56,0,0,1-8-1.92c-18-10.32-9.71-58.76,18.58-108.19s65.85-81.12,83.89-70.8a14.69,14.69,0,0,1,4.19,3.84C702.91,514.1,693.77,558.12,668.05,603.05Z" class="ba025f83-a1bc-45fa-b743-2b0877bde2d7"></path><path d="M587,696.54a27.39,27.39,0,0,1-13.79-3.48c-13-7.45-18.53-25.9-15.52-51.93,2.93-25.41,13.62-55.26,30.1-84S624.55,504,645,488.56c20.92-15.77,39.62-20.36,52.64-12.9h0c26.72,15.29,20.31,75-14.58,136-16.48,28.79-36.8,53.12-57.23,68.52C611.44,691,598.11,696.54,587,696.54Zm96.8-220.12c-10.16,0-22.58,5.28-36.21,15.55-20,15.06-39.9,38.94-56.1,67.23s-26.7,57.57-29.57,82.42c-2.79,24.23,2,41.18,13.41,47.73s28.47,2.08,48-12.61c20-15.06,39.9-38.93,56.1-67.23,33.14-57.89,40.39-116.28,16.16-130.15h0A23.26,23.26,0,0,0,683.76,476.42ZM592,677.9a17.69,17.69,0,0,1-8.86-2.19c-19.35-11.08-11.53-59.88,17.79-111.11s67.45-82.66,86.8-71.59a16.56,16.56,0,0,1,4.81,4.37c12.9,16.44,3.39,61.33-22.6,106.73h0c-2.93,5.12-6.08,10.21-9.62,15.56l-.08.3-.35.35c-23.17,34.8-49.72,57.39-67.65,57.58ZM678.77,495c-18.6,0-50.23,29.86-74.18,71.7C577.4,614.23,568.53,662.45,585.22,672a14.17,14.17,0,0,0,6.93,1.63c16.34-.17,42.17-22.62,64.27-55.86l.12-.18c3.56-5.37,6.72-10.47,9.66-15.6h0c24.76-43.25,34.62-87.09,22.94-102a12.51,12.51,0,0,0-3.57-3.3A13.48,13.48,0,0,0,678.77,495Z" class="e190106d-7c66-48fe-99bd-e94951444f2d"></path><path d="M337.62,806c0-12,4.44-51.23,4.44-51.23l-69.82-8" class="ba025f83-a1bc-45fa-b743-2b0877bde2d7"></path><path d="M337.62,808.08a2.14,2.14,0,0,1-2.14-2.13c0-10.53,3.29-41,4.22-49.35L272,748.89a2.14,2.14,0,0,1-1.88-2.36,2.09,2.09,0,0,1,2.36-1.88l69.82,8a2.13,2.13,0,0,1,1.88,2.35c-.05.4-4.43,39.23-4.43,51A2.14,2.14,0,0,1,337.62,808.08Z" class="e190106d-7c66-48fe-99bd-e94951444f2d"></path><path d="M268,746.77s-10.05,49.67-10,89.4a37.46,37.46,0,0,0,38.56,37.53c40.72-1.35,109.12-24.31,199.59-60.82L529,800.57a59.06,59.06,0,0,0,25.12-16.7c6-6.94,11.62-14.15,2.38-18.16,0,0,13-14-1.55-17.37,0,0,7.1-15.25-9.41-12.32,0,0-2.08-14.21-13.81-6.92-11.06,6.88-18.49,18.77-35.21,24.33,0,0,11.08-15.16,3.18-20.08s-15.47,4.61-27,30.49c0,0-2.12,7.32-6.67,8.31-4.13.91-86.87,17.18-145.43,42" class="ba025f83-a1bc-45fa-b743-2b0877bde2d7"></path><path d="M295.26,875.85A39,39,0,0,1,268,864.79a39.55,39.55,0,0,1-12.13-28.62c0-39.48,9.95-89.33,10-89.82a2.14,2.14,0,0,1,4.19.84c-.1.5-10,49.93-10,89a35.29,35.29,0,0,0,10.84,25.55,34.7,34.7,0,0,0,25.52,9.84c36.58-1.2,97.91-19.91,198.86-60.66l32.89-12.33a56.88,56.88,0,0,0,24.25-16.1c2.77-3.19,7.39-8.54,6.69-11.64-.28-1.2-1.47-2.26-3.54-3.16a2.14,2.14,0,0,1-.71-3.41c1.53-1.64,5.65-7.1,4.62-10.46-.48-1.57-2.19-2.71-5.09-3.38a2.17,2.17,0,0,1-1.44-1.15,2.13,2.13,0,0,1,0-1.83c.67-1.46,2.23-6.12.6-8.24-1.37-1.78-5-1.56-7.71-1.08a2.09,2.09,0,0,1-1.61-.37,2.14,2.14,0,0,1-.87-1.41c-.23-1.5-1.38-5.64-4-6.83-1.65-.77-3.87-.29-6.59,1.4a81.2,81.2,0,0,0-10.87,8.66c-6.42,5.72-13.69,12.2-24.79,15.89a2.15,2.15,0,0,1-2.4-.77,2.12,2.12,0,0,1,0-2.51c1.83-2.51,6.37-10,5.5-14.48a3.61,3.61,0,0,0-1.73-2.54,4.84,4.84,0,0,0-4.19-.72c-6.4,1.95-13.94,17.2-19.79,30.27-.15.6-2.53,8.3-8.16,9.53l-1.55.32c-26.64,5.5-93.94,20.55-143.49,41.56a2.14,2.14,0,0,1-1.67-3.93C369.58,791,437.21,775.9,464,770.38l1.5-.31c2.68-.59,4.61-5.24,5.08-6.83,9.59-21.47,16.09-30.92,22.53-32.88a9.06,9.06,0,0,1,7.7,1.18,7.94,7.94,0,0,1,3.66,5.35c.75,3.9-1,8.56-2.8,12.15,7.11-3.44,12.35-8.11,17.46-12.66a84.49,84.49,0,0,1,11.46-9.09c4-2.5,7.61-3.06,10.65-1.65,3.54,1.64,5.2,5.56,5.91,8,4.63-.49,8,.51,9.83,3,2.43,3.16,1.61,7.64.75,10.35,3.14,1.18,5.12,3.06,5.89,5.6,1.39,4.55-1.71,9.69-3.84,12.53a8,8,0,0,1,3.55,4.8c1.09,4.81-3,10-7.62,15.38a61.14,61.14,0,0,1-26,17.32l-32.81,12.29c-101.39,40.93-163.17,59.73-200.26,61Z" class="e190106d-7c66-48fe-99bd-e94951444f2d"></path><path d="M545.49,736s.56,12.88-31.33,26.8" class="ba025f83-a1bc-45fa-b743-2b0877bde2d7"></path><path d="M514.16,765a2.13,2.13,0,0,1-.86-4.09c29.67-13,30.06-24.68,30.06-24.8a2.16,2.16,0,0,1,2.09-2.15,2,2,0,0,1,2.17,2c.07,1.47-.31,14.74-32.61,28.84A2,2,0,0,1,514.16,765Z" class="e190106d-7c66-48fe-99bd-e94951444f2d"></path><path d="M555.64,745.2S545,768.76,519.1,774.48" class="ba025f83-a1bc-45fa-b743-2b0877bde2d7"></path><path d="M519.1,776.61a2.13,2.13,0,0,1-.46-4.21c24.52-5.43,35-27.86,35.06-28.08a2.13,2.13,0,1,1,3.88,1.76c-.45,1-11.44,24.6-38,30.48A1.93,1.93,0,0,1,519.1,776.61Z" class="e190106d-7c66-48fe-99bd-e94951444f2d"></path><path d="M558.32,763.13s-16.45,20.15-36.45,22.58" class="ba025f83-a1bc-45fa-b743-2b0877bde2d7"></path><path d="M521.87,787.85a2.13,2.13,0,0,1-.25-4.25c18.92-2.3,34.89-21.63,35-21.82a2.14,2.14,0,0,1,3.31,2.7c-.7.85-17.24,20.85-37.85,23.35Z" class="e190106d-7c66-48fe-99bd-e94951444f2d"></path><path d="M139.27,584.07a2.13,2.13,0,0,1-1.17-3.92l31.33-20.37a2.13,2.13,0,0,1,2.33,3.57l-31.33,20.37A2.07,2.07,0,0,1,139.27,584.07Z" class="e190106d-7c66-48fe-99bd-e94951444f2d"></path><path d="M168.46,586.77a2.13,2.13,0,0,1-1.47-.59l-27.06-25.77a2.13,2.13,0,1,1,2.94-3.09l27.06,25.77a2.13,2.13,0,0,1-1.47,3.68Z" class="e190106d-7c66-48fe-99bd-e94951444f2d"></path><path d="M242,456.1c-4.77,0-9.17-3.36-13.07-10-3.09-5.24-6.25-8-9.13-8.08h-.07c-3.64,0-6.73,4.3-7.9,6.16a29.57,29.57,0,0,1-6.44,7.6c-7.45,5.85-15.36,4.85-21.7-2.77-3.14-3.77-6.14-5.68-8.91-5.68s-4.93,1.92-6.27,3.52c-3,3.58-5.89,5.9-8.89,7.09-4.3,1.72-10.75,2.37-17.05-4.21-2.5-2.62-5.09-3.84-7.58-3.59-4.86.45-8.6,6-8.64,6a2.13,2.13,0,0,1-3.57-2.33c.19-.3,4.85-7.3,11.82-8,3.88-.36,7.6,1.29,11.05,4.89,3.74,3.9,7.91,5,12.39,3.2,2.33-.92,4.68-2.84,7.19-5.85,1.92-2.31,5.14-5.06,9.55-5.06,4.1,0,8.2,2.42,12.19,7.21,4.92,5.92,10.08,6.62,15.78,2.14a25.29,25.29,0,0,0,5.47-6.51c1.92-3.06,5.95-8.16,11.51-8.16h.13c4.52.06,8.81,3.49,12.74,10.18,3.08,5.23,6.25,7.89,9.41,7.89h.06c4.56,0,8.75-5.75,10-7.94a2.14,2.14,0,0,1,3.73,2.08c-.23.41-5.68,10-13.65,10.12Z" class="e190106d-7c66-48fe-99bd-e94951444f2d"></path><path d="M909.53,598.54c-4.78,0-9.18-3.36-13.08-10-3.08-5.25-6.24-8-9.13-8.08-3.52.09-6.79,4.28-8,6.15a29.22,29.22,0,0,1-6.45,7.6c-7.45,5.85-15.36,4.85-21.69-2.76-3.14-3.77-6.14-5.68-8.92-5.68h0c-2.75,0-4.93,1.91-6.26,3.52-3,3.57-5.89,5.89-8.89,7.09-4.3,1.71-10.75,2.37-17.06-4.22-2.5-2.61-5.07-3.83-7.57-3.58-4.87.45-8.6,6-8.64,6a2.13,2.13,0,1,1-3.57-2.33c.19-.3,4.84-7.3,11.81-7.94,3.87-.39,7.61,1.28,11.06,4.88,3.74,3.91,7.91,5,12.39,3.2,2.33-.92,4.68-2.84,7.19-5.85,1.92-2.31,5.13-5.06,9.54-5.06h0c4.11,0,8.21,2.43,12.2,7.22,4.92,5.91,10.08,6.61,15.77,2.13a24.9,24.9,0,0,0,5.47-6.51c1.94-3.08,6.13-8.09,11.64-8.15,4.53.07,8.81,3.49,12.75,10.18,3.08,5.24,6.24,7.89,9.4,7.89h.06c4.56,0,8.75-5.74,10-7.93a2.13,2.13,0,0,1,3.73,2.07c-.23.41-5.68,10-13.65,10.13Z" class="e190106d-7c66-48fe-99bd-e94951444f2d"></path><circle r="19.07" cy="181.57" cx="777.58" class="ba025f83-a1bc-45fa-b743-2b0877bde2d7"></circle><path d="M777.58,202.77a21.21,21.21,0,1,1,21.21-21.2A21.22,21.22,0,0,1,777.58,202.77Zm0-38.14a16.94,16.94,0,1,0,16.94,16.94A17,17,0,0,0,777.58,164.63Z" class="ea64e9ba-a57d-484a-9f2d-981c8273b016"></path><path d="M359.46,759.94,252.12,748.68a17.46,17.46,0,0,1-15.36-19.32l12-68.24a62.24,62.24,0,0,1,68.88-54.79l9.83,1.12a62.24,62.24,0,0,1,54.78,68.88l-3.51,68.24A17.46,17.46,0,0,1,359.46,759.94Z" class="e190106d-7c66-48fe-99bd-e94951444f2d"></path><path d="M513.43,383.36a35.54,35.54,0,0,1-5.59-.4,2.13,2.13,0,1,1,.73-4.2c.15,0,15.07,2.47,24.15-6.62a2.14,2.14,0,1,1,3,3C528.79,382.1,519.36,383.36,513.43,383.36Z" class="e190106d-7c66-48fe-99bd-e94951444f2d"></path><circle r="6.23" cy="436.82" cx="455.93" class="e190106d-7c66-48fe-99bd-e94951444f2d"></circle><circle r="6.23" cy="434.01" cx="528" class="e190106d-7c66-48fe-99bd-e94951444f2d"></circle><path d="M438.37,463.82a2.59,2.59,0,0,1-.47-.05l-19.82-4.44a2.13,2.13,0,0,1-1.61-2.55,2.16,2.16,0,0,1,2.55-1.62l19.82,4.45a2.13,2.13,0,0,1-.47,4.21Z" class="ea64e9ba-a57d-484a-9f2d-981c8273b016"></path><path d="M530.63,459.42a2.13,2.13,0,0,1-1.07-4l12.54-7.21a2.13,2.13,0,0,1,2.13,3.7l-12.54,7.21A2.13,2.13,0,0,1,530.63,459.42Z" class="ea64e9ba-a57d-484a-9f2d-981c8273b016"></path><path d="M484.76,456a8.73,8.73,0,0,1-1.44-.11l.08-2.15.39-2.1a4.92,4.92,0,0,0,4.94-2,5.23,5.23,0,0,0,.51-5.41,17.48,17.48,0,0,1-1.58-5.62,2.13,2.13,0,1,1,4.25-.37,13.2,13.2,0,0,0,1.15,4.09,9.43,9.43,0,0,1-.9,9.84A9.18,9.18,0,0,1,484.76,456Z" class="ea64e9ba-a57d-484a-9f2d-981c8273b016"></path><path d="M488.43,479.47A21.83,21.83,0,0,1,477,476.21a2.14,2.14,0,0,1,2.39-3.54h0a17.45,17.45,0,0,0,18.15-.06,2.13,2.13,0,0,1,2.17,3.67A21.86,21.86,0,0,1,488.43,479.47Z" class="ea64e9ba-a57d-484a-9f2d-981c8273b016"></path><path d="M787.91,914.13h-250A7.55,7.55,0,0,1,530.85,904l61.3-167.75a7.54,7.54,0,0,1,7.09-5h250a7.55,7.55,0,0,1,7.09,10.14L795,909.17A7.54,7.54,0,0,1,787.91,914.13Z" class="ba025f83-a1bc-45fa-b743-2b0877bde2d7"></path><path d="M787.91,916.26h-250a9.69,9.69,0,0,1-9.09-13l61.29-167.74a9.73,9.73,0,0,1,9.1-6.36h250a9.69,9.69,0,0,1,9.09,13L797,909.9A9.73,9.73,0,0,1,787.91,916.26ZM599.24,733.42a5.44,5.44,0,0,0-5.09,3.55L532.86,904.72a5.4,5.4,0,0,0,5.08,7.27h250a5.44,5.44,0,0,0,5.09-3.55L854.29,740.7a5.41,5.41,0,0,0-5.08-7.28Z" class="ea64e9ba-a57d-484a-9f2d-981c8273b016"></path><path d="M764.51,847.52h-5.44l8.59-23.6a5.58,5.58,0,0,0,.24-.91,8.27,8.27,0,0,0,.42-.91c1.1-3-.44-5.44-3.47-5.44h-47.2l6.83-18.76h5.45c4.84,0,10.62-4.24,11.77-9.08l8.15-22.39c1.54-4.23-.55-8.47-5.39-8.47H722.08a13.83,13.83,0,0,0-12.16,8.47l-8.37,23a6.12,6.12,0,0,0,6,8.47h6.05l-6.83,18.76H659.57a8.57,8.57,0,0,0-7.43,5.44,5.39,5.39,0,0,0-.25.91,6.18,6.18,0,0,0-.41.91l-8.59,23.6h-6c-4.24,0-10,4.23-11.78,9.07L616.91,879c-1.76,4.84.55,8.47,5.39,8.47h22.39c4.84,0,10.4-3.63,11.55-8.47l8.15-22.39c1.76-4.84-.32-9.07-5.16-9.07h-5.45l7.27-20H702.8l-7.27,20h-6c-4.84,0-10.62,4.23-12.38,9.07L669,879c-1.76,4.84,1.15,8.47,6,8.47h22.39c4.84,0,10.4-3.63,11.56-8.47L717,856.59c1.76-4.84-.33-9.07-5.17-9.07h-5.45l7.27-20h41.75l-7.27,20h-6c-4.84,0-10,4.23-11.77,9.07L722.2,879c-1.76,4.84.55,8.47,5.39,8.47H750A13.86,13.86,0,0,0,762.14,879l8.14-22.39C772.05,851.75,769.35,847.52,764.51,847.52Z" class="ea64e9ba-a57d-484a-9f2d-981c8273b016"></path><path d="M171.78,239.07c-3.62,0-6.68-.24-7.95-.36a2.13,2.13,0,0,1,.39-4.25c7.9.73,20.56.33,22.66-2.83.15-.23.55-.84-.31-2.44-3.08-5.76-14.52-10.29-24.88-9.84-.5,0-1,.05-1.46.1.11.56.22,1.12.32,1.67a10.64,10.64,0,0,1-2.9,9.35,9.57,9.57,0,0,1-8.41,2.8,5.88,5.88,0,0,1-3.37-1.63c-4.18-3.25-21.52-17.51-21-30.13.2-4.71,2.75-8.61,7.58-11.59,4.27-2.63,8.34-3.11,12.09-1.43,7.7,3.44,12.2,15.46,14.79,26.75.7-.07,1.42-.12,2.17-.15,10.5-.44,24.52,4.07,28.81,12.08,1.71,3.19,1,5.47.1,6.82C187.64,238.2,178.67,239.07,171.78,239.07ZM149.32,228.9a3,3,0,0,0,.62.16,5.27,5.27,0,0,0,4.67-1.58,6.36,6.36,0,0,0,1.74-5.6c-.11-.57-.21-1.12-.32-1.67-3.23.94-5.5,2.59-6.47,4.81-1.06,2.44-.79,3.33-.7,3.53l.41.31ZM140,191.79a10.26,10.26,0,0,0-5.33,1.76c-3.6,2.22-5.42,4.88-5.56,8.14-.33,7.83,9,17.79,15.76,23.64a16.64,16.64,0,0,1,.74-2c1.54-3.54,4.83-6,9.49-7.31-3-12.93-7.37-21.42-12.32-23.62A6.72,6.72,0,0,0,140,191.79Z" class="ea64e9ba-a57d-484a-9f2d-981c8273b016"></path><path d="M173.23,218.5a2,2,0,0,1-.71-.13,2.13,2.13,0,0,1-1.3-2.72c1.36-3.84,4.05-15,.23-20.39-1.57-2.23-4.13-3.32-7.83-3.32a5,5,0,0,0-4,1.72c-3,3.49-2.68,11.38-2.29,14.13a2.14,2.14,0,1,1-4.23.59c-.07-.48-1.61-11.87,3.3-17.52a9.29,9.29,0,0,1,7.24-3.18c5.11,0,8.92,1.72,11.32,5.12,5.87,8.3.53,23.63.3,24.28A2.14,2.14,0,0,1,173.23,218.5Z" class="ea64e9ba-a57d-484a-9f2d-981c8273b016"></path><path d="M241.84,315.41a27.23,27.23,0,0,1-12.7-3.15c-8.2-4.26-12.65-9.52-14.56-14.59-20.07-3.75-29.48-24-29.59-24.27a2.13,2.13,0,0,1,3.89-1.76c.39.85,8.11,17.39,24.62,21.47a16,16,0,0,1,.45-5.71c2-7.56,9.3-12.59,17.69-12.19,5,.23,9.47,5.06,9.68,10.35.09,2.45-.75,10.59-15.54,12.41a38,38,0,0,1-6.24.27c2,3.53,5.6,7.13,11.57,10.23,22,11.42,44.91-18.36,45.14-18.66a2.13,2.13,0,0,1,3.4,2.57C278.8,293.5,261.93,315.41,241.84,315.41Zm-23.92-21.55a33.64,33.64,0,0,0,7.34-.12c7.65-.95,12-3.87,11.79-8-.12-3.09-2.84-6.13-5.6-6.26-6.36-.29-11.88,3.43-13.38,9A11.94,11.94,0,0,0,217.92,293.86Z" class="ea64e9ba-a57d-484a-9f2d-981c8273b016"></path><path d="M593.66,275.23a16.61,16.61,0,0,1-2.54-.19c-8.92-1.36-14-9.47-14.23-9.82a2.13,2.13,0,0,1,3.62-2.25c0,.07,4.33,6.81,11.28,7.86,4.46.67,9.19-1.13,14-5.34,2.91-2.52,4-4.76,3.31-6.67-1.76-4.71-13.65-8.5-22.33-8.5-1.34,0-2.4,0-3.23.07-.73.83-1.18,1.31-1.21,1.35a2.16,2.16,0,0,1-2.27.56c-2.86-1-3.05-2.6-2.9-3.47.27-1.57,1.61-2.28,4.3-2.58.71-.83,1.54-1.84,2.43-3,9-11.39,13.12-20.92,11.35-26.16-.83-2.44-3-4.08-6.6-5a14.54,14.54,0,0,0-11.88,1.79c-12.24,7.67-17.15,31.32-17.2,31.56a2.13,2.13,0,1,1-4.18-.85c.21-1,5.32-25.67,19.11-34.32A18.86,18.86,0,0,1,589.74,208c5,1.3,8.27,3.91,9.58,7.78,2.91,8.61-4.94,21.16-12,30.16l-.1.14c7.83.1,23,3.43,26,11.27,1,2.59,1,6.66-4.51,11.4C603.63,273.05,598.61,275.23,593.66,275.23Z" class="ea64e9ba-a57d-484a-9f2d-981c8273b016"></path><path d="M787.51,916.26H127a2.14,2.14,0,0,1,0-4.27h660.5a2.14,2.14,0,0,1,0,4.27Z" class="ea64e9ba-a57d-484a-9f2d-981c8273b016"></path><path d="M538.39,237.59l-.35,0a2.13,2.13,0,0,1-1.75-2.46l10.84-64.94a2.1,2.1,0,0,1,2.45-1.75,2.14,2.14,0,0,1,1.76,2.45L540.5,235.81A2.14,2.14,0,0,1,538.39,237.59Z" class="e190106d-7c66-48fe-99bd-e94951444f2d"></path><path d="M621.73,297.58H588.89a2.14,2.14,0,0,1,0-4.27h32.84a2.14,2.14,0,0,1,0,4.27Z" class="e190106d-7c66-48fe-99bd-e94951444f2d"></path><path d="M518.59,237.59a2.12,2.12,0,0,1-2-1.27l-10.39-23.5a2.13,2.13,0,1,1,3.9-1.73l10.39,23.5a2.14,2.14,0,0,1-1.09,2.82A2.18,2.18,0,0,1,518.59,237.59Z" class="e190106d-7c66-48fe-99bd-e94951444f2d"></path><path d="M716.93,583s7.91-11,6.36-23.48" class="e190106d-7c66-48fe-99bd-e94951444f2d"></path><path d="M716.93,585.08a2.13,2.13,0,0,1-1.74-3.38c.08-.1,7.41-10.47,6-22a2.14,2.14,0,0,1,1.86-2.38,2.1,2.1,0,0,1,2.37,1.85c1.64,13.19-6.4,24.51-6.75,25A2.1,2.1,0,0,1,716.93,585.08Z" class="ea64e9ba-a57d-484a-9f2d-981c8273b016"></path><path d="M723.81,604.52a2.11,2.11,0,0,1-1.24-.4,2.13,2.13,0,0,1-.49-3c.15-.21,15.22-21.47,12.28-45.2a2.13,2.13,0,0,1,4.23-.53c3.15,25.43-12.39,47.31-13.05,48.23A2.15,2.15,0,0,1,723.81,604.52Z" class="ea64e9ba-a57d-484a-9f2d-981c8273b016"></path><path d="M671.48,446.6a2.12,2.12,0,0,1-1.32-.46c-12.21-9.72-28.54-6.1-28.7-6.06a2.14,2.14,0,0,1-1-4.16c.75-.17,18.48-4.15,32.33,6.88a2.13,2.13,0,0,1-1.34,3.8Z" class="ea64e9ba-a57d-484a-9f2d-981c8273b016"></path><path d="M682.89,434.76a2.1,2.1,0,0,1-1.52-.64c-22.67-23.26-47.57-8.39-48.63-7.75a2.13,2.13,0,0,1-2.24-3.63c.29-.18,28.84-17.35,53.92,8.4a2.13,2.13,0,0,1-1.53,3.62Z" class="ea64e9ba-a57d-484a-9f2d-981c8273b016"></path><rect height="1024" width="1024" class="b50aef11-f8a3-461a-becf-6e515c466a98"></rect><path d="M868.35,344.22a2.1,2.1,0,0,1-1.67-.81L843.5,314.09a2.13,2.13,0,0,1,3.35-2.64L870,340.77a2.13,2.13,0,0,1-1.67,3.45Z" class="e190106d-7c66-48fe-99bd-e94951444f2d"></path><path d="M845.18,344.22a2.13,2.13,0,0,1-1.68-3.45l23.18-29.32a2.13,2.13,0,0,1,3.34,2.64l-23.17,29.32A2.1,2.1,0,0,1,845.18,344.22Z" class="e190106d-7c66-48fe-99bd-e94951444f2d"></path></svg>